<svg xmlns="http://www.w3.org/2000/svg" viewBox="0 0 803 195"><title>mixcode-board</title><path d="M47.25,76.51,66.52,54.28h13v60H64.56V76.81L48.37,95.6H46.13L29.93,76.81v37.42H15V54.28H28Z" style="fill:#68bbd9"/><path d="M108.21,54.28v60H93.27V54.28Z" style="fill:#68bbd9"/><path d="M183.77,54.28,160.33,83.16l26,31.07H167l-16.25-19.8-16,19.8H115.67l25.46-31.06-24-28.89h19.37L150.74,72l14.06-17.7Z" style="fill:#68bbd9"/><path d="M249.34,96V109a49.66,49.66,0,0,1-23.56,6q-16,0-25.42-8.82a28.52,28.52,0,0,1-9.46-21.73q0-12.92,10-21.93t26.07-9q12.84,0,21.72,5.28V72.13Q237.76,66,228,66q-9.57,0-15.65,5.13a16.38,16.38,0,0,0-6.07,13.07,16.68,16.68,0,0,0,6,13.17q6,5.2,15.34,5.2a32.31,32.31,0,0,0,8.93-1.23A86.24,86.24,0,0,0,249.34,96Z" style="fill:#125893"/><path d="M293,53.51q15.32,0,24.8,9.24t9.48,21.52q0,12.45-9.61,21.59T293,115q-15.24,0-24.81-9.1t-9.56-21.63q0-12.31,9.5-21.54T293,53.51Zm0,49.05q8.49,0,13.69-5t5.19-13.24q0-8.23-5.19-13.25T293,66q-8.55,0-13.76,5t-5.21,13.25q0,8.2,5.21,13.24T293,102.56Z" style="fill:#125893"/><path d="M338,54.28h26.44q15.31,0,24.22,8.39t8.9,21.69q0,14-9,21.91t-25.77,8H338Zm14.94,11v38h9.74q9.48,0,14.5-5.21t5-13.76q0-8.83-5.08-13.92t-14.61-5.09Z" style="fill:#125893"/><path d="M453,103.24v11h-44.2V54.28h43.6v11H423.7V77.84H451v11H423.7v14.42Z" style="fill:#125893"/><path d="M531.55,164.28c0,12.68-9.93,20.07-28.94,20.07H465.85V110.4h34.64c17.75,0,27.26,7.5,27.26,19.23a17.73,17.73,0,0,1-9.51,16.27C526.16,148.43,531.55,154.67,531.55,164.28Zm-52-43.1v20.39H499c9.5,0,14.89-3.38,14.89-10.14s-5.39-10.25-14.89-10.25Zm38.13,41.73c0-7.4-5.6-10.67-16-10.67H479.58v21.34h22.18C512.11,173.58,517.71,170.3,517.71,162.91Z" style="fill:#68bbd9"/><path d="M540.31,156.15c0-16.91,12.68-28.84,30-28.84,17.53,0,30.1,11.93,30.1,28.84s-12.57,28.94-30.1,28.94C553,185.09,540.31,173.05,540.31,156.15Zm46.8,0c0-10.78-7.18-17.65-16.79-17.65s-16.69,6.87-16.69,17.65,7.18,17.64,16.69,17.64S587.11,166.92,587.11,156.15Z" style="fill:#68bbd9"/><path d="M659.58,151.29v33.06H647.11v-6.87c-3.17,4.86-9.3,7.61-17.75,7.61-12.88,0-21-7.08-21-16.9,0-9.4,6.34-16.8,23.45-16.8h14.58v-.84c0-7.72-4.65-12.26-14-12.26-6.34,0-12.89,2.11-17.11,5.6L610,134.28c6-4.65,14.79-7,23.88-7C650.17,127.31,659.58,135,659.58,151.29Zm-13.21,15.42v-6.55H632.74c-9,0-11.4,3.38-11.4,7.5,0,4.75,4,7.82,10.77,7.82C638.55,175.48,644.15,172.52,646.37,166.71Z" style="fill:#68bbd9"/><path d="M709.12,127.31v12.57a17,17,0,0,0-3.07-.32c-10,0-16.37,5.92-16.37,17.43v27.36H676.47V127.94h12.58v8.24C692.85,130.26,699.71,127.31,709.12,127.31Z" style="fill:#68bbd9"/><path d="M775,106v78.38H762.36v-7.29c-4.44,5.39-11,8-18.7,8-16.38,0-28.52-11.41-28.52-28.94s12.14-28.84,28.52-28.84c7.29,0,13.73,2.43,18.17,7.6V106Zm-13,50.18c0-10.78-7.29-17.65-16.8-17.65s-16.79,6.87-16.79,17.65,7.29,17.64,16.79,17.64S762,166.92,762,156.15Z" style="fill:#68bbd9"/><path d="M630.69,68.63A119.12,119.12,0,0,1,721.36,111c.12-1.83.19-3.67.2-5.53a91,91,0,1,0-182.08-.85c0,1.86,0,3.7.14,5.53A119.12,119.12,0,0,1,630.69,68.63Z" style="fill:none;stroke:#125893;stroke-miterlimit:10;stroke-width:11.856933392183638px"/><rect x="604.46" y="44.81" width="8" height="14.4" transform="translate(0.25 -2.85) rotate(0.27)" style="fill:#125893"/><rect x="619.18" y="30.48" width="8" height="28.8" transform="translate(0.22 -2.91) rotate(0.27)" style="fill:#125893"/><rect x="589.81" y="35.42" width="8" height="23.71" transform="translate(0.23 -2.78) rotate(0.27)" style="fill:#125893"/><rect x="633.82" y="44.95" width="8" height="14.4" transform="translate(0.25 -2.98) rotate(0.27)" style="fill:#125893"/><rect x="648.54" y="30.62" width="8" height="28.8" transform="matrix(1, 0, 0, 1, 0.22, -3.05)" style="fill:#125893"/><rect x="663.17" y="51.86" width="8" height="7.62" transform="translate(0.27 -3.12) rotate(0.27)" style="fill:#125893"/><path d="M625.74,63.41c-14.5,16.89-25.43,30.67-21.64,33.92S619.34,86,633.83,69.13s26.56-29.69,22.77-32.95S640.24,46.53,625.74,63.41Z" style="fill:#68bbd9"/><circle cx="608.75" cy="92.5" r="12.06" style="fill:#68bbd9"/></svg>