<svg xmlns="http://www.w3.org/2000/svg" viewBox="0 0 769 250"><title>MixCode Board</title><line x1="41.91" y1="146.47" x2="393.16" y2="146.2" style="fill:none;stroke:#34495e;stroke-miterlimit:10;stroke-width:1.655520031863061px;stroke-dasharray:6.622080326080322"/><path d="M58.65,146.41c4.71,1.89,6.86,5.82,6.86,15.16v21.66c0,6.36,2.46,10,7.48,10h1.84v16.51H68.89c-12.81,0-19.36-8.66-19.36-24.22V161c0-4.33-1.74-6.36-4.51-6.36H41.64V138.15H45c2.77,0,4.51-2,4.51-6.36v-24.5c0-15.56,6.55-24.23,19.36-24.23h5.94V99.58H73c-5,0-7.48,3.65-7.48,10v21.66C65.51,140.59,63.36,144.51,58.65,146.41Z" style="fill:#2c3e50"/><path d="M370.3,131.25V109.59c0-6.36-2.46-10-7.48-10H361V83.06h5.95c12.8,0,19.36,8.67,19.36,24.23v24.5c0,4.33,1.74,6.36,4.51,6.36h3.38v16.52h-3.38c-2.77,0-4.51,2-4.51,6.36v24.5c0,15.56-6.56,24.22-19.36,24.22H361V193.24h1.85c5,0,7.48-3.65,7.48-10V161.57c0-9.34,2.15-13.27,6.86-15.16C372.45,144.51,370.3,140.59,370.3,131.25Z" style="fill:#2c3e50"/><rect x="118.59" y="107.36" width="17.66" height="102.32" rx="4.33" ry="4.33" style="fill:#16a085"/><rect x="163.73" y="146.2" width="17.66" height="63.49" rx="3.41" ry="3.41" style="fill:#d35400"/><rect x="208.87" y="40.25" width="17.66" height="169.44" rx="5.57" ry="5.57" style="fill:#27ae60"/><rect x="254.02" y="167.55" width="17.66" height="42.13" rx="2.78" ry="2.78" style="fill:#c0392b"/><rect x="299.16" y="69.64" width="17.66" height="140.04" rx="5.06" ry="5.06" style="fill:#27ae60"/><path d="M429.61,78.09l10.08-11.63h6.79V97.82h-7.82V78.25l-8.47,9.83H429l-8.47-9.83V97.82h-7.81V66.46h6.78Z" style="fill:#68bbd9"/><path d="M461.49,66.46V97.82h-7.81V66.46Z" style="fill:#68bbd9"/><path d="M501,66.46,488.76,81.57l13.61,16.25H492.24l-8.51-10.35-8.35,10.35h-10l13.32-16.24L466.14,66.46h10.13l7.47,9.26,7.36-9.26Z" style="fill:#68bbd9"/><path d="M535.32,88.26v6.85A25.94,25.94,0,0,1,523,98.23q-8.36,0-13.3-4.61A15.38,15.38,0,0,1,510,70.77q5.22-4.71,13.64-4.71A21.84,21.84,0,0,1,535,68.82v7a22.11,22.11,0,0,0-10.79-3.21A12.22,12.22,0,0,0,516,75.28a8.53,8.53,0,0,0-3.18,6.83A8.72,8.72,0,0,0,515.94,89a11.82,11.82,0,0,0,8,2.72,16.75,16.75,0,0,0,4.66-.64A45.68,45.68,0,0,0,535.32,88.26Z" style="fill:#125893"/><path d="M558.18,66.06q8,0,13,4.84a15.24,15.24,0,0,1,5,11.26,15.05,15.05,0,0,1-5,11.29,18,18,0,0,1-12.9,4.78q-8,0-13-4.76a15.28,15.28,0,0,1,0-22.58Q550.14,66.06,558.18,66.06Zm0,25.66a9.84,9.84,0,0,0,7.16-2.64,10.22,10.22,0,0,0,0-13.86,11.12,11.12,0,0,0-14.36,0,10.16,10.16,0,0,0,0,13.86A9.92,9.92,0,0,0,558.18,91.72Z" style="fill:#125893"/><path d="M581.72,66.46h13.83q8,0,12.67,4.39a14.88,14.88,0,0,1,4.66,11.35q0,7.29-4.72,11.46t-13.48,4.16h-13Zm7.81,5.75V92.08h5.1q5,0,7.59-2.73a9.94,9.94,0,0,0,2.62-7.19,9.81,9.81,0,0,0-2.66-7.29q-2.65-2.66-7.64-2.66Z" style="fill:#125893"/><path d="M641.84,92.08v5.74H618.72V66.46h22.8v5.75h-15v6.58h14.3v5.74h-14.3v7.55Z" style="fill:#125893"/><path d="M476.89,162.68c0,12.93-10.26,20.41-29.91,20.41H408.31V108.32h36.53c18.69,0,28.31,7.79,28.31,19.43a18,18,0,0,1-9.94,16.45C471.54,146.88,476.89,153.28,476.89,162.68Zm-51.38-41.33V139H442.7c8.44,0,13-3,13-8.86s-4.6-8.76-13-8.76Zm34,39.52c0-6.3-4.8-9.29-13.77-9.29H425.51v18.47H445.7C454.67,170.05,459.47,167.28,459.47,160.87Z" style="fill:#1abc9c"/><path d="M484.57,154.35c0-17.3,13.36-29.59,31.62-29.59s31.51,12.29,31.51,29.59-13.24,29.59-31.51,29.59S484.57,171.66,484.57,154.35Zm46.25,0c0-9.93-6.3-15.91-14.63-15.91s-14.74,6-14.74,15.91,6.41,15.92,14.74,15.92S530.82,164.29,530.82,154.35Z" style="fill:#e67e22"/><path d="M608.69,150.29v32.8H593.1v-7.16c-3.1,5.23-9.08,8-17.52,8-13.46,0-21.47-7.48-21.47-17.41,0-10.15,7.16-17.2,24.67-17.2H592c0-7.16-4.27-11.32-13.25-11.32-6.08,0-12.39,2-16.55,5.34l-6-11.64c6.3-4.49,15.59-7,24.78-7C598.54,124.76,608.69,132.88,608.69,150.29ZM592,164.93v-5.88H580.6c-7.8,0-10.25,2.89-10.25,6.73,0,4.17,3.52,6.94,9.4,6.94C585.3,172.72,590.11,170.16,592,164.93Z" style="fill:#2ecc71"/><path d="M659.43,124.76v15.39c-1.39-.11-2.46-.22-3.74-.22-9.19,0-15.28,5-15.28,16v27.14H623.75V125.62h15.92v7.58C643.72,127.65,650.56,124.76,659.43,124.76Z" style="fill:#e74c3c"/><path d="M727.36,103.83v79.26H711.45v-6.63c-4.17,5-10.26,7.48-18,7.48-16.23,0-28.73-11.54-28.73-29.59s12.5-29.59,28.73-29.59c7,0,13,2.25,17.2,7V103.83ZM711,154.35c0-9.93-6.41-15.91-14.64-15.91s-14.74,6-14.74,15.91,6.41,15.92,14.74,15.92S711,164.29,711,154.35Z" style="fill:#34495e"/></svg>